<?xml version="1.0" encoding="UTF-8" standalone="no"?>
<!-- Created with Inkscape (http://www.inkscape.org/) -->

<svg
   width="50mm"
   height="65mm"
   viewBox="0 0 50 65"
   version="1.1"
   id="svg1"
   inkscape:version="1.3 (0e150ed6c4, 2023-07-21)"
   sodipodi:docname="batpinlogo.svg"
   xmlns:inkscape="http://www.inkscape.org/namespaces/inkscape"
   xmlns:sodipodi="http://sodipodi.sourceforge.net/DTD/sodipodi-0.dtd"
   xmlns="http://www.w3.org/2000/svg"
   xmlns:svg="http://www.w3.org/2000/svg">
  <sodipodi:namedview
     id="namedview1"
     pagecolor="#ffffff"
     bordercolor="#000000"
     borderopacity="0.25"
     inkscape:showpageshadow="2"
     inkscape:pageopacity="0.0"
     inkscape:pagecheckerboard="0"
     inkscape:deskcolor="#d1d1d1"
     inkscape:document-units="mm"
     inkscape:zoom="1.0464728"
     inkscape:cx="104.15942"
     inkscape:cy="93.170128"
     inkscape:window-width="1600"
     inkscape:window-height="829"
     inkscape:window-x="1912"
     inkscape:window-y="-8"
     inkscape:window-maximized="1"
     inkscape:current-layer="layer1" />
  <defs
     id="defs1">
    <filter
       inkscape:collect="always"
       style="color-interpolation-filters:sRGB"
       id="filter1"
       x="-0.011897577"
       y="-0.0084760224"
       width="1.0237923"
       height="1.0197256">
      <feGaussianBlur
         inkscape:collect="always"
         stdDeviation="0.0013693561"
         id="feGaussianBlur1" />
    </filter>
  </defs>
  <g
     inkscape:label="Camada 1"
     inkscape:groupmode="layer"
     id="layer1">
    <path
       style="fill:#ffffff;stroke:#000000;stroke-width:0.910821;stroke-linejoin:round;paint-order:markers stroke fill"
       d="M 22.708828,41.011344 C 20.432269,40.650162 18.595818,39.863771 16.114521,38.187577 14.521822,37.111659 12.162101,34.773522 11.19436,33.312416 9.6052921,30.913233 8.734334,28.307561 8.4847142,25.205889 8.2306968,22.049575 8.6336068,18.969724 9.6220316,16.512214 11.087369,12.868963 15.314751,8.5997489 19.012828,7.0284928 c 1.607407,-0.6829627 2.971245,-0.9907366 5.079165,-1.1462035 5.61498,-0.4141241 9.635347,1.0354446 13.599572,4.9034117 3.827077,3.734146 5.531997,8.239208 5.239393,13.844496 -0.128273,2.457235 -0.515518,4.024481 -1.529922,6.191827 -2.145833,4.58473 -5.844576,8.024375 -10.252953,9.534733 -2.412487,0.826545 -5.732351,1.084048 -8.439255,0.654587 z"
       id="path1"
       inkscape:label="pinbackground" />
    <path
       d="M 23.487599,60.479301 C 19.211539,56.559451 13.18433,49.006481 10.216179,43.848311 7.8694694,39.770101 6.1078194,35.443031 5.0235294,31.09386 c -0.603557,-2.4209 -0.708927,-3.41612 -0.720426,-6.8044 -0.01513,-4.45756 0.371196,-6.20771 2.158426,-9.77819 2.70221,-5.3983994 6.6438006,-8.7958073 12.6447696,-10.8990263 1.97678,-0.69282 2.39645,-0.74207 6.35,-0.74524 4.07065,-0.003 4.32202,0.0282 6.54111,0.81977 6.15194,2.194299 10.7899,6.4956763 13.134451,12.1812663 1.270894,3.08195 1.492971,4.39607 1.467924,8.68601 -0.0208,3.55863 -0.10777,4.28456 -0.841697,7.024901 -1.983088,7.4044 -5.409088,13.81743 -11.371258,21.28551 -2.23516,2.7997 -6.0733,6.93902 -7.68662,8.28976 l -1.29427,1.08363 z m 6.27262,-20.60984 c 5.38218,-1.39833 9.89776,-5.91788 11.60106,-11.611251 0.64797,-2.16585 0.64797,-6.56539 0,-8.73125 -0.90045,-3.00979 -2.43518,-5.53509 -4.58286,-7.54078 -3.32144,-3.1018693 -6.78549,-4.4920573 -11.18983,-4.4907073 -4.93091,0.001 -8.25807,1.378558 -11.800089,4.8838373 -3.394161,3.35895 -4.7409106,6.73464 -4.6988506,11.77786 0.0406,4.86352 1.6781806,8.574211 5.2122406,11.810411 1.72073,1.5757 4.353319,3.15838 6.272119,3.77071 2.61003,0.83292 6.28329,0.88537 9.18621,0.13117 z"
       style="fill:#ff0000;stroke:#000000;stroke-opacity:1;filter:url(#filter1)"
       id="path1-9"
       inkscape:label="pin" />
    <path
       d="m 25.980263,32.016834 c -0.0605,-0.20272 -0.43714,-1.30385 -0.83697,-2.44695 -0.80206,-2.29302 -0.95488,-4.35924 -0.41825,-5.6548 0.31483,-0.76004 0.29148,-0.92055 -0.24304,-1.67122 -0.80125,-1.12526 -0.95758,-2.77731 -0.3877,-4.09735 l 0.45344,-1.05036 0.3257,0.92604 c 0.29867,0.84918 0.4103,0.92402 1.34496,0.90165 0.91259,-0.0218 1.05247,-0.11876 1.33665,-0.92604 l 0.31741,-0.90165 0.45344,1.05036 c 0.57064,1.32181 0.40641,3.08028 -0.38803,4.15482 -0.55528,0.75106 -0.56217,0.829 -0.16169,1.8299 0.60583,1.51412 0.51757,2.43873 -0.51343,5.37823 -0.99321,2.83179 -1.11475,3.06942 -1.28249,2.50737 z m -1.60686,-2.32807 c -0.0934,-0.15119 -0.64114,-0.41609 -1.21712,-0.58865 -1.02512,-0.30714 -1.04722,-0.33977 -1.04722,-1.5462 0,-1.17652 0.45529,-4.16997 0.69278,-4.55498 0.062,-0.10045 0.47451,-0.0565 0.91677,0.0977 0.59747,0.20828 0.75708,0.3912 0.62107,0.71181 -0.43433,1.02388 -0.42722,3.19107 0.0148,4.52196 0.41673,1.25468 0.42737,2.01931 0.0189,1.35838 z m 3.29191,0.0624 c 0,-0.0661 0.19002,-0.70115 0.42226,-1.41119 0.41729,-1.27581 0.42095,-3.62567 0.007,-4.5316 -0.14925,-0.32665 0.002,-0.50097 0.62322,-0.71747 0.76273,-0.26589 0.83963,-0.23558 1.09466,0.43149 0.15087,0.39461 0.34241,1.75927 0.42564,3.03257 0.12461,1.90629 0.0842,2.31511 -0.22877,2.31511 -0.20905,0 -0.82198,0.22529 -1.36208,0.50064 -0.54009,0.27536 -0.98198,0.44656 -0.98198,0.38045 z m -6.41365,-2.00101 c -0.53356,-0.81788 -1.76215,-1.22677 -3.17749,-1.05751 -0.6548,0.0783 -0.99219,0.0121 -0.99219,-0.19469 0,-0.45798 2.19317,-3.74174 2.98253,-4.46565 l 0.67613,-0.62005 0.83416,0.61672 c 0.75153,0.55563 0.81524,0.7088 0.64315,1.5461 -0.10506,0.51116 -0.26184,1.81849 -0.34839,2.90518 l -0.15738,1.97581 z m 9.23981,-1.5766 c -0.0837,-1.20905 -0.22649,-2.49709 -0.31726,-2.8623 -0.13355,-0.53736 -0.005,-0.78207 0.6719,-1.2828 l 0.83694,-0.61878 0.80519,0.75364 c 0.97032,0.9082 2.84999,3.72366 2.84999,4.26886 0,0.29363 -0.21559,0.35548 -0.8693,0.2494 -1.32278,-0.21466 -2.22537,0.0539 -3.06394,0.9116 l -0.76128,0.77865 z m -14.63254,-0.96295 c -0.77125,-0.9105 -0.91479,-0.96987 -2.31315,-0.95674 -0.81999,0.008 -1.48974,-0.0518 -1.48834,-0.13229 0.004,-0.2138 7.13027,-3.98275 7.53082,-3.98275 0.18664,0 0.48586,0.17654 0.66494,0.39232 0.26912,0.32427 0.11669,0.62467 -0.87879,1.73188 -0.6624,0.73675 -1.53936,1.91977 -1.94879,2.62893 l -0.74441,1.28938 z m 19.21726,-0.22671 c -0.35036,-0.66044 -1.15825,-1.78053 -1.7953,-2.48908 -1.16643,-1.29736 -1.36758,-2.14284 -0.54738,-2.3008 0.41774,-0.0804 6.96355,4.06755 6.1468,4.05985 -1.38903,-0.0131 -1.53934,0.0488 -2.32605,0.95841 l -0.84105,0.97242 z"
       style="display:inline;fill:#000000"
       id="path1-1"
       inkscape:label="bat" />
  </g>
</svg>
