<?xml version="1.0" encoding="UTF-8" standalone="no"?>
<!-- Created with Inkscape (http://www.inkscape.org/) -->

<svg
   width="50mm"
   height="65mm"
   viewBox="0 0 50 65"
   version="1.1"
   id="svg1"
   xml:space="preserve"
   inkscape:version="1.3 (0e150ed6c4, 2023-07-21)"
   sodipodi:docname="pumpkinpinlogo.svg"
   xmlns:inkscape="http://www.inkscape.org/namespaces/inkscape"
   xmlns:sodipodi="http://sodipodi.sourceforge.net/DTD/sodipodi-0.dtd"
   xmlns="http://www.w3.org/2000/svg"
   xmlns:svg="http://www.w3.org/2000/svg"><sodipodi:namedview
     id="namedview1"
     pagecolor="#ffffff"
     bordercolor="#000000"
     borderopacity="0.25"
     inkscape:showpageshadow="2"
     inkscape:pageopacity="0.0"
     inkscape:pagecheckerboard="0"
     inkscape:deskcolor="#d1d1d1"
     inkscape:document-units="mm"
     inkscape:zoom="1.69812"
     inkscape:cx="91.277413"
     inkscape:cy="77.438579"
     inkscape:window-width="1600"
     inkscape:window-height="829"
     inkscape:window-x="1912"
     inkscape:window-y="-8"
     inkscape:window-maximized="1"
     inkscape:current-layer="layer1"
     showgrid="false" /><defs
     id="defs1"><filter
       inkscape:collect="always"
       style="color-interpolation-filters:sRGB"
       id="filter1"
       x="-0.017670154"
       y="-0.012658935"
       width="1.0359686"
       height="1.0299621"><feGaussianBlur
         inkscape:collect="always"
         stdDeviation="0.0013693561"
         id="feGaussianBlur1" /></filter></defs><g
     inkscape:label="Camada 1"
     inkscape:groupmode="layer"
     id="layer1"><path
       style="fill:#ffffff;stroke:#000000;stroke-width:0.910821;stroke-linejoin:round;paint-order:markers stroke fill"
       d="M 22.162402,41.207482 C 19.885843,40.8463 18.049392,40.059909 15.568095,38.383715 13.975396,37.307797 11.615675,34.96966 10.647933,33.508554 9.0588651,31.109371 8.187907,28.503699 7.9382872,25.402027 7.6842698,22.245713 8.0871798,19.165862 9.0756046,16.708352 10.540942,13.065101 14.768325,8.7958853 18.466402,7.2246292 c 1.607407,-0.6829627 2.971245,-0.9907366 5.079165,-1.1462035 5.61498,-0.4141241 9.635347,1.0354446 13.599572,4.9034123 3.827077,3.734147 5.531997,8.239209 5.239393,13.844497 -0.128273,2.457235 -0.515518,4.024481 -1.529922,6.191827 -2.145833,4.58473 -5.844576,8.024375 -10.252953,9.534733 -2.412487,0.826545 -5.732351,1.084048 -8.439255,0.654587 z"
       id="path1-4"
       inkscape:label="pinbackground" /><path
       style="fill:#ff0000;stroke:#000000;stroke-width:1.5;stroke-dasharray:none;stroke-opacity:1;filter:url(#filter1)"
       d="M 21.739052,58.873945 C 14.970762,51.948575 10.308337,45.400935 7.3841405,38.714745 3.4263817,29.665305 2.7998207,22.021165 5.4854837,15.550835 7.8412985,9.8751753 12.683531,5.4554977 18.79245,3.4050781 c 1.938763,-0.65073 2.472473,-0.71123 6.35,-0.7198 4.065557,-0.009 4.32347,0.0228 6.507662,0.80227 4.20208,1.49955 6.943461,3.3666987 9.825476,6.6921069 1.487564,1.71642 3.682362,5.99865 4.355617,8.49815 0.632139,2.34686 0.627011,8.03786 -0.01,11.06909 -1.441059,6.85759 -5.166927,14.40719 -10.598148,21.47466 -2.116777,2.7545 -7.081997,8.214 -8.823242,9.7016 l -1.448578,1.23755 z m 6.080719,-18.90645 c 5.196567,-0.8982 9.786259,-4.30029 11.945104,-8.85427 1.370517,-2.89104 1.768697,-4.5967 1.760325,-7.54062 -0.01259,-4.42642 -1.638739,-8.27163 -4.876608,-11.53128 -3.269497,-3.2914891 -6.771,-4.7318482 -11.516699,-4.7374582 -4.889171,-0.006 -7.995444,1.2778291 -11.560027,4.7769582 -1.858347,1.82423 -2.488217,2.65312 -3.220543,4.23815 -1.7713011,3.83375 -2.1295578,7.8484 -1.0664724,11.95098 0.7302654,2.81819 1.8414244,4.64108 4.3139834,7.0772 2.457162,2.42095 4.444409,3.59424 7.332839,4.32937 3.008746,0.76575 3.918838,0.80419 6.888098,0.29097 z"
       id="path1"
       sodipodi:nodetypes="csssccsscssccsssscccssss"
       inkscape:label="pin" /><path
       d="m 23.717057,33.821949 c -0.729595,-0.37425 -1.134655,-0.42342 -1.909436,-0.23176 -3.03576,0.75094 -6.335885,-2.6381 -7.068164,-7.258601 -0.920577,-5.80861 2.834144,-11.07833 6.982555,-9.79996 1.176532,0.36256 1.657654,0.38319 3.089401,0.13248 0.55026,-0.0964 1.202219,-0.0399 1.523119,0.13179 0.438627,0.23475 0.836215,0.20254 1.822039,-0.14759 3.873018,-1.37557 7.434657,2.38466 7.458098,7.87396 0.0127,2.97393 -0.726535,5.12174 -2.388783,6.940511 -1.655612,1.8115 -3.241293,2.51019 -4.770547,2.10201 -0.771697,-0.20598 -1.143718,-0.1903 -1.506021,0.0635 -0.888716,0.62248 -2.238662,0.70338 -3.232261,0.1937 z m 3.796049,-3.635911 c 0.517057,0.12977 0.754228,0.0203 1.100437,-0.50812 0.347693,-0.53065 0.593342,-0.64314 1.157847,-0.53024 0.641925,0.12838 0.792744,0.003 1.448649,-1.20186 0.783552,-1.43964 0.695053,-1.64066 -0.359232,-0.81599 -0.757063,0.59218 -1.232839,0.66711 -1.382629,0.21774 -0.0571,-0.17129 -0.378932,0.13373 -0.715193,0.67781 l -0.611384,0.98924 -0.594283,-0.5583 -0.594284,-0.5583 -0.801287,0.67424 c -0.440708,0.37083 -0.891924,0.67424 -1.002702,0.67424 -0.110778,0 -0.614774,-0.31529 -1.119991,-0.70063 -0.820155,-0.62557 -0.944721,-0.65392 -1.1626,-0.26459 -0.369222,0.65977 -0.928998,0.52504 -1.444519,-0.34767 -0.347712,-0.58863 -0.547162,-0.71383 -0.801237,-0.50297 -0.246429,0.20452 -0.59176,0.12409 -1.271796,-0.29619 -1.115236,-0.68926 -1.149371,-0.55174 -0.245769,0.99014 0.589094,1.00522 0.785949,1.15477 1.372403,1.04267 0.508011,-0.0971 0.816285,0.0365 1.194815,0.51767 0.389201,0.49479 0.67544,0.61333 1.207285,0.49998 0.453768,-0.0967 0.970091,0.0327 1.479055,0.370561 0.777528,0.5162 0.786721,0.51616 1.634615,-0.008 0.560011,-0.346111 1.078922,-0.470211 1.5118,-0.361571 z m -2.00256,-4.53436 c -0.290562,-0.63771 -0.335294,-0.65231 -0.655786,-0.21401 -0.500569,0.68457 -0.426345,0.89841 0.311833,0.89841 0.609345,0 0.633703,-0.0485 0.343953,-0.6844 z m -3.380989,-1.77128 c 0,-0.0409 -0.705548,-0.77261 -1.567884,-1.62595 l -1.567883,-1.55152 -0.422765,1.01182 c -0.232521,0.5565 -0.380449,1.13935 -0.32873,1.29522 0.07626,0.22984 1.195175,0.50664 3.688824,0.91256 0.109141,0.0178 0.198438,-0.001 0.198438,-0.0421 z m 8.406459,-0.34253 c 0.767251,-0.10007 1.456363,-0.28124 1.531361,-0.40259 0.075,-0.12135 -0.116312,-0.71591 -0.425132,-1.32125 l -0.561492,-1.10061 -0.781169,0.94769 c -0.429643,0.52123 -1.16374,1.26146 -1.631327,1.64495 -0.805983,0.66103 -0.815788,0.6899 -0.1887,0.55552 0.363802,-0.078 1.289208,-0.22363 2.056459,-0.32371 z m -7.726889,-7.49123 c -0.09224,-0.14925 0.193375,-0.45808 0.634695,-0.68629 0.703611,-0.36386 0.802401,-0.55418 0.802401,-1.54586 0,-0.622 -0.148828,-1.2818 -0.330729,-1.46622 -0.265088,-0.26876 -0.227828,-0.41125 0.187739,-0.71794 0.285157,-0.21045 1.310633,0.62315 1.611862,1.63011 0.441409,1.47557 0.692144,1.90089 1.292093,2.19178 0.968928,0.46979 0.392605,0.88693 -0.699434,0.50624 -0.741299,-0.25841 -1.971437,-0.17908 -2.894664,0.18669 -0.239942,0.0951 -0.511725,0.0507 -0.603963,-0.0985 z"
       style="fill:#000000"
       id="path1-0"
       inkscape:label="pumpkin" /></g></svg>
