<?xml version="1.0" encoding="UTF-8" standalone="no"?>
<!-- Created with Inkscape (http://www.inkscape.org/) -->

<svg
   width="50mm"
   height="65mm"
   viewBox="0 0 50 65"
   version="1.1"
   id="svg1"
   inkscape:version="1.3 (0e150ed6c4, 2023-07-21)"
   sodipodi:docname="skullpinlogo.svg"
   xmlns:inkscape="http://www.inkscape.org/namespaces/inkscape"
   xmlns:sodipodi="http://sodipodi.sourceforge.net/DTD/sodipodi-0.dtd"
   xmlns="http://www.w3.org/2000/svg"
   xmlns:svg="http://www.w3.org/2000/svg">
  <sodipodi:namedview
     id="namedview1"
     pagecolor="#ffffff"
     bordercolor="#000000"
     borderopacity="0.25"
     inkscape:showpageshadow="2"
     inkscape:pageopacity="0.0"
     inkscape:pagecheckerboard="0"
     inkscape:deskcolor="#d1d1d1"
     inkscape:document-units="mm"
     inkscape:zoom="1.7"
     inkscape:cx="90.588235"
     inkscape:cy="115"
     inkscape:window-width="1600"
     inkscape:window-height="829"
     inkscape:window-x="1912"
     inkscape:window-y="-8"
     inkscape:window-maximized="1"
     inkscape:current-layer="layer1" />
  <defs
     id="defs1">
    <filter
       inkscape:collect="always"
       style="color-interpolation-filters:sRGB"
       id="filter1"
       x="-0.017807557"
       y="-0.012686559"
       width="1.035611"
       height="1.0295332">
      <feGaussianBlur
         inkscape:collect="always"
         stdDeviation="0.0013693561"
         id="feGaussianBlur1" />
    </filter>
  </defs>
  <g
     inkscape:label="Camada 1"
     inkscape:groupmode="layer"
     id="layer1">
    <path
       style="fill:#ffffff;stroke:#000000;stroke-width:0.910821;stroke-linejoin:round;paint-order:markers stroke fill"
       d="M 22.271347,41.051843 C 19.994788,40.690661 18.158337,39.90427 15.67704,38.228076 14.084341,37.152158 11.72462,34.814021 10.756879,33.352915 9.1678107,30.953732 8.2968527,28.34806 8.0472327,25.246388 7.7932157,22.090074 8.1961257,19.010223 9.1845507,16.552713 10.649888,12.909462 14.87727,8.6402479 18.575347,7.0689918 c 1.607407,-0.6829627 2.971245,-0.9907366 5.079165,-1.1462035 5.61498,-0.4141241 9.635347,1.0354446 13.599572,4.9034117 3.827077,3.734146 5.531997,8.239208 5.239393,13.844496 -0.128273,2.457235 -0.515518,4.024481 -1.529922,6.191827 -2.145833,4.58473 -5.844576,8.024375 -10.252953,9.534733 -2.412487,0.826545 -5.732351,1.084048 -8.439255,0.654587 z"
       id="path1-4"
       inkscape:label="pinbackground" />
    <path
       d="M 23.487599,60.479301 C 19.211539,56.559451 13.18433,49.006481 10.216179,43.848311 7.8694694,39.770101 6.1078194,35.443031 5.0235294,31.09386 c -0.603557,-2.4209 -0.708927,-3.41612 -0.720426,-6.8044 -0.01513,-4.45756 0.371196,-6.20771 2.158426,-9.77819 2.70221,-5.3983994 6.6438006,-8.7958073 12.6447696,-10.8990263 1.97678,-0.69282 2.39645,-0.74207 6.35,-0.74524 4.07065,-0.003 4.32202,0.0282 6.54111,0.81977 6.15194,2.194299 10.7899,6.4956763 13.134451,12.1812663 1.270894,3.08195 1.492971,4.39607 1.467924,8.68601 -0.0208,3.55863 -0.10777,4.28456 -0.841697,7.024901 -1.983088,7.4044 -5.409088,13.81743 -11.371258,21.28551 -2.23516,2.7997 -6.0733,6.93902 -7.68662,8.28976 l -1.29427,1.08363 z m 6.27262,-20.60984 c 5.38218,-1.39833 9.89776,-5.91788 11.60106,-11.611251 0.64797,-2.16585 0.64797,-6.56539 0,-8.73125 -0.90045,-3.00979 -2.43518,-5.53509 -4.58286,-7.54078 -3.32144,-3.1018693 -6.78549,-4.4920573 -11.18983,-4.4907073 -4.93091,0.001 -8.25807,1.378558 -11.800089,4.8838373 -3.394161,3.35895 -4.7409106,6.73464 -4.6988506,11.77786 0.0406,4.86352 1.6781806,8.574211 5.2122406,11.810411 1.72073,1.5757 4.353319,3.15838 6.272119,3.77071 2.61003,0.83292 6.28329,0.88537 9.18621,0.13117 z"
       style="fill:#ff0000;stroke:#000000;stroke-opacity:1;filter:url(#filter1);stroke-width:1.5;stroke-dasharray:none"
       id="path1-9"
       inkscape:label="pin" />
    <path
       style="fill:#000000;stroke-width:0.305708"
       d="M 24.161459,37.414519 C 23.596318,37.232305 23.073218,36.777574 22.584286,36.043488 22.229304,35.510517 21.547915,34.86343 20.55525,34.116607 20.061859,33.74541 19.615411,33.347846 19.563147,33.233133 19.423473,32.926583 19.312516,32.047177 19.308866,31.217788 19.30078,29.381323 19.005949,28.64063 17.762665,27.333333 17.317606,26.865359 16.893891,26.34677 16.82108,26.180917 c -0.107893,-0.245771 -0.128636,-0.542494 -0.112117,-1.603989 0.02023,-1.299402 0.01959,-1.304526 -0.270852,-2.202956 -0.160115,-0.495287 -0.345966,-1.183133 -0.413,-1.52855 -0.284499,-1.465973 -0.282649,-3.637673 0.0041,-4.753177 0.308588,-1.200668 1.382256,-2.835836 2.397827,-3.651817 0.932053,-0.748881 2.744247,-1.603748 4.117286,-1.942249 0.826531,-0.20377 4.267419,-0.251934 5.176659,-0.07246 2.298179,0.453631 4.360614,1.566237 5.46905,2.95035 1.324263,1.653617 1.728954,2.854738 1.72948,5.133085 3.05e-4,1.39299 -0.162702,2.456234 -0.577034,3.763465 l -0.318132,1.003714 0.02052,1.341957 c 0.0247,1.615053 0.04928,1.55186 -1.054577,2.712535 -1.223345,1.286332 -1.537118,2.066321 -1.547369,3.846524 -0.0053,0.922615 -0.120907,1.78702 -0.280163,2.09498 -0.06408,0.123922 -0.437016,0.456542 -0.828744,0.73916 -0.846991,0.611074 -1.806924,1.513411 -2.147843,2.018976 -0.359721,0.533445 -0.865065,1.04073 -1.233601,1.23834 -0.280336,0.150317 -0.474758,0.175997 -1.455933,0.192284 -0.62282,0.01038 -1.223628,-0.01062 -1.335132,-0.04657 z m 2.808715,-0.930927 c 0.452643,-0.250287 0.657675,-0.451778 1.260195,-1.238448 0.211563,-0.27622 0.625115,-0.676603 0.91901,-0.889739 1.052645,-0.763389 1.441249,-1.125199 1.682847,-1.566791 0.227551,-0.415927 0.241085,-0.494479 0.263646,-1.530384 0.01308,-0.600572 0.03345,-1.465002 0.04527,-1.920952 0.02146,-0.828454 0.0214,-0.82883 -0.118707,-0.566196 -0.07711,0.144541 -0.144422,0.3174 -0.149585,0.384134 -0.0052,0.06673 -0.07694,0.26692 -0.159507,0.444866 l -0.150116,0.323544 0.03685,-0.647083 c 0.05069,-0.890266 -0.07154,-0.580687 -0.376193,0.952812 -0.323378,1.627803 -0.610266,2.155603 -1.116635,2.054327 -0.175018,-0.035 -0.274134,-0.0048 -0.384581,0.117258 -0.10344,0.114302 -0.219458,0.154043 -0.380656,0.130385 -0.18015,-0.02644 -0.250197,0.0062 -0.31406,0.146373 -0.109788,0.240949 -0.394363,0.367644 -0.585516,0.26067 -0.11931,-0.06676 -0.183849,-0.03484 -0.344447,0.170359 -0.233105,0.297852 -0.363894,0.315167 -0.585327,0.07749 l -0.163068,-0.175036 -0.169493,0.215478 c -0.189054,0.240342 -0.410124,0.277366 -0.56218,0.09415 -0.05538,-0.06673 -0.164574,-0.121329 -0.242656,-0.121329 -0.07808,0 -0.187273,0.0546 -0.242655,0.121329 -0.150402,0.181221 -0.372521,0.146959 -0.555524,-0.08569 l -0.162838,-0.207013 -0.166575,0.166571 c -0.228887,0.228891 -0.364005,0.209377 -0.59513,-0.08595 -0.158366,-0.202354 -0.226089,-0.236593 -0.340892,-0.172349 -0.213676,0.119576 -0.435338,0.02883 -0.571176,-0.233851 -0.100423,-0.19421 -0.146762,-0.219875 -0.273997,-0.151781 -0.119962,0.06421 -0.203106,0.0399 -0.383823,-0.112166 -0.165813,-0.139523 -0.293367,-0.182132 -0.453564,-0.151509 -0.500282,0.09564 -0.78197,-0.444429 -1.114603,-2.136966 -0.292161,-1.486622 -0.428739,-1.82331 -0.362569,-0.893787 0.02455,0.344771 0.02987,0.626861 0.01183,0.626861 -0.01803,0 -0.109909,-0.227491 -0.204146,-0.505534 -0.323806,-0.955436 -0.374034,-0.961009 -0.350145,-0.03884 0.01183,0.455104 0.03284,1.318841 0.04679,1.919413 0.0352,1.51637 0.184143,1.780547 1.594194,2.827595 0.652299,0.484367 1.012083,0.82473 1.408697,1.332651 0.912404,1.168466 1.302679,1.349943 2.837481,1.319415 0.987886,-0.01966 1.077047,-0.03504 1.473583,-0.254299 z M 24.404637,36.31356 c -0.182067,-0.104079 -0.08537,-0.115231 0.970623,-0.111888 1.060105,0.0034 1.149512,0.01437 0.930181,0.114821 -0.333344,0.152634 -1.632178,0.150636 -1.900804,-0.003 z m 0.86077,-1.476157 c -0.07228,-0.437261 -0.0612,-0.770705 0.03021,-0.909959 0.185809,-0.283048 0.312284,0.353417 0.190862,0.960513 -0.06798,0.339884 -0.160013,0.318839 -0.221069,-0.05056 z m -0.89009,-0.4297 c -0.08253,-0.412642 -0.0629,-0.659235 0.04954,-0.62226 0.120926,0.03977 0.183879,0.698225 0.07697,0.805128 -0.04601,0.04602 -0.09486,-0.02461 -0.126515,-0.182868 z m 1.854985,0.155109 c -0.08587,-0.200544 -0.01974,-0.73959 0.09537,-0.777403 0.113505,-0.03729 0.126859,0.368739 0.02329,0.708235 -0.05058,0.165794 -0.07195,0.178252 -0.118659,0.06916 z M 23.52292,34.372314 c -0.165195,-0.373909 -0.219079,-0.960091 -0.08412,-0.915103 0.142047,0.04734 0.254055,0.488475 0.219,0.862502 l -0.02767,0.295256 z m 3.572374,-0.282028 c 0.02644,-0.291649 0.09218,-0.537661 0.153908,-0.576019 0.160399,-0.09966 0.181209,0.05712 0.07222,0.54413 -0.14304,0.639184 -0.282988,0.658918 -0.226129,0.03189 z m -4.493135,-0.460855 c -0.209897,-0.463924 -0.217118,-0.676556 -0.01733,-0.510759 0.110693,0.09185 0.330012,0.869615 0.263881,0.935745 -0.02054,0.02054 -0.131488,-0.170699 -0.246535,-0.424986 z m 5.286746,0.394494 c -0.01229,-0.209425 0.175799,-0.821428 0.278685,-0.906815 0.206713,-0.171557 0.189279,0.06297 -0.03968,0.533818 -0.128041,0.263301 -0.235589,0.43115 -0.239,0.372997 z m -6.017628,-0.785697 c -0.248519,-0.36573 -0.299132,-0.61225 -0.09008,-0.438752 0.168442,0.139798 0.376289,0.549293 0.337646,0.665227 -0.01697,0.05087 -0.128362,-0.05105 -0.247569,-0.226475 z m 6.739393,0.199888 c 0,-0.132995 0.218765,-0.52254 0.358651,-0.63864 0.20509,-0.170209 0.160349,0.07022 -0.07847,0.421669 -0.211287,0.310933 -0.280185,0.364288 -0.280185,0.216971 z m -7.596681,-0.71433 c -0.182327,-0.268489 -0.367666,-0.589778 -0.411862,-0.713981 l -0.08037,-0.225821 0.185608,0.222923 c 0.275923,0.33139 0.733574,1.109583 0.682548,1.160608 -0.02443,0.02443 -0.193605,-0.175241 -0.375932,-0.443729 z m 8.324649,0.409957 c 0,-0.08989 0.787852,-1.309313 0.84593,-1.309313 0.06978,0 -0.139547,0.428076 -0.425249,0.869663 -0.277044,0.428208 -0.420681,0.57832 -0.420681,0.43965 z m -8.662603,-0.09818 c -0.07106,-0.04013 -0.232225,-0.301758 -0.358133,-0.581389 -0.194566,-0.43211 -0.234301,-0.641966 -0.264725,-1.398159 -0.01968,-0.489354 -0.01675,-0.871537 0.0065,-0.849293 0.02327,0.02225 0.08257,0.386225 0.131782,0.808851 0.07062,0.606509 0.150753,0.890879 0.38031,1.349664 0.301208,0.601991 0.331824,0.798844 0.104261,0.670326 z m 9.228438,-0.0206 c -1.99e-4,-0.05421 0.126869,-0.353359 0.282373,-0.664765 0.220779,-0.44213 0.30234,-0.734577 0.372208,-1.334608 0.0492,-0.422626 0.108509,-0.786608 0.131782,-0.808852 0.02327,-0.02225 0.02623,0.365976 0.0066,0.862712 -0.03216,0.813189 -0.06143,0.955377 -0.293823,1.427442 -0.237795,0.483028 -0.498267,0.753385 -0.499132,0.518071 z m -5.73996,-0.14374 c 0.04901,-0.09158 0.09579,-0.319065 0.103947,-0.505535 l 0.01486,-0.339033 -0.355112,-0.02544 -0.35511,-0.02543 0.04451,0.331827 c 0.04604,0.343213 0.248266,0.730092 0.381635,0.730092 0.0419,0 0.116281,-0.07492 0.165284,-0.166501 z m 0.91126,0.02283 c 0.07151,-0.07901 0.154598,-0.297405 0.184645,-0.485311 l 0.05463,-0.341647 h -0.37432 -0.374322 v 0.305543 c 0,0.289961 0.177998,0.66508 0.315592,0.66508 0.03507,0 0.122268,-0.06465 0.193772,-0.143665 z m 0.982427,-0.03611 c 0.06925,-0.09887 0.125912,-0.317263 0.125912,-0.485311 V 32.067094 H 25.809546 25.43498 l 0.04733,0.291651 c 0.05069,0.312339 0.253471,0.678972 0.375543,0.678972 0.04094,0 0.131094,-0.0809 0.200349,-0.179769 z m 0.899742,-0.01935 c 0.07176,-0.109522 0.150506,-0.348455 0.174984,-0.53096 l 0.04451,-0.331827 -0.35511,0.02544 -0.35511,0.02544 0.01486,0.339033 c 0.01565,0.357792 0.141562,0.672035 0.269237,0.672035 0.04189,0 0.134889,-0.08961 0.206651,-0.199132 z m -3.619517,-0.560391 c 0.02907,-0.353759 -0.01014,-0.410074 -0.340292,-0.488118 -0.23333,-0.05516 -0.233605,-0.05476 -0.189265,0.275829 0.08423,0.627967 0.482298,0.787546 0.529557,0.212289 z m 4.460761,0.236939 c 0.05394,-0.06499 0.118043,-0.267139 0.142466,-0.449228 0.04435,-0.330718 0.04416,-0.331015 -0.189263,-0.275089 -0.343333,0.08226 -0.354998,0.09637 -0.354998,0.42934 0,0.421954 0.18419,0.557177 0.401795,0.294977 z M 22.53042,31.908247 C 22.54907,31.71253 22.51434,31.59817 22.413862,31.524705 22.177106,31.351586 22.058969,31.399286 22.058969,31.668 c 0,0.568018 0.41981,0.781946 0.471456,0.240247 z m 6.077407,0.16418 c 0.10957,-0.204741 0.107881,-0.652399 -0.0024,-0.652399 -0.23458,0 -0.399109,0.179007 -0.399109,0.434234 0,0.399918 0.235763,0.528 0.401582,0.218165 z M 25.225962,31.30989 c -0.01537,-0.260765 -0.07158,-0.62475 -0.124885,-0.808851 -0.198634,-0.686067 -0.660987,-0.253802 -0.750184,0.701362 l -0.04934,0.528281 0.233531,0.03654 c 0.12844,0.02012 0.342723,0.0321 0.476186,0.02666 l 0.242656,-0.0099 z m 0.958597,0.461901 0.263321,-0.05267 -0.04879,-0.522506 c -0.07806,-0.835972 -0.473509,-1.333962 -0.687072,-0.86524 -0.117488,0.257853 -0.275034,1.31574 -0.211306,1.418855 0.05384,0.08711 0.314928,0.09534 0.683851,0.02155 z M 24.121348,31.15715 c 0.079,-0.85709 -0.118285,-1.28211 -0.436552,-0.94049 -0.171876,0.184489 -0.361078,0.914024 -0.317114,1.222746 0.02387,0.167737 0.199939,0.253402 0.605405,0.294594 0.05955,0.006 0.114085,-0.206161 0.148261,-0.57685 z m 3.215381,0.449693 c 0.166507,-0.09494 -0.03951,-1.141709 -0.274314,-1.393739 -0.32517,-0.349026 -0.530132,0.129633 -0.435175,1.016291 l 0.05558,0.51899 0.296626,-0.05348 c 0.163141,-0.02941 0.323922,-0.06904 0.357287,-0.08806 z M 23.212223,30.99538 c 0.03897,-0.488742 -0.06075,-0.909961 -0.215438,-0.909961 -0.156869,0 -0.377559,0.430632 -0.424709,0.828725 -0.04635,0.391392 -0.03598,0.427609 0.143103,0.499261 0.40657,0.162673 0.453918,0.122852 0.497044,-0.418025 z m 4.79755,0.422463 c 0.208897,-0.07942 0.216299,-0.101569 0.168589,-0.504387 -0.04767,-0.402553 -0.245789,-0.79142 -0.415897,-0.816344 -0.151842,-0.02225 -0.254915,0.394822 -0.221994,0.898268 0.03537,0.540797 0.0718,0.573594 0.469302,0.422463 z m -5.642799,-0.672132 c 0.04521,-0.707362 -0.323412,-0.862678 -0.466288,-0.196464 -0.08055,0.375551 -0.07462,0.435213 0.05239,0.528091 0.260273,0.190318 0.387023,0.08876 0.413892,-0.331627 z m 6.547115,0.316973 c 0.04138,-0.04138 -0.08213,-0.759601 -0.14907,-0.866899 -0.129587,-0.207705 -0.354141,0.03495 -0.381884,0.41266 -0.03618,0.492533 0.02106,0.597684 0.28879,0.53049 0.12183,-0.03058 0.230806,-0.06489 0.242164,-0.07625 z m -4.038668,-1.422132 c 0.06898,0 0.20967,0.07915 0.312636,0.175867 l 0.187203,0.175871 0.187207,-0.175871 c 0.230929,-0.216945 0.380173,-0.221402 0.637436,-0.01904 0.197281,0.15518 0.200785,0.15518 0.333658,0 0.161894,-0.189078 0.362007,-0.199838 0.601171,-0.03232 0.161289,0.112974 0.197616,0.111502 0.392066,-0.01589 0.196031,-0.128446 0.232991,-0.129697 0.433435,-0.01468 0.186214,0.106868 0.241693,0.10927 0.369357,0.0159 0.08262,-0.06042 0.23262,-0.109849 0.33332,-0.109849 0.19704,0 0.217884,-0.06607 0.305869,-0.969477 0.07311,-0.750733 0.455946,-1.09477 1.520495,-1.366426 0.856875,-0.218658 1.677821,-0.454083 1.87561,-0.537872 0.110935,-0.047 0.137924,-0.03824 0.09521,0.03086 -0.07205,0.116583 -0.93381,0.561749 -1.382424,0.714128 l -0.323544,0.109897 0.405305,-0.03597 c 1.370517,-0.121592 2.46619,-1.139052 2.466076,-2.290037 -3.6e-5,-0.404103 -0.04407,-0.539346 -0.323494,-0.993533 l -0.323451,-0.525754 -4.6e-5,-1.097492 c -5.2e-5,-1.306174 -0.08832,-1.664522 -0.65227,-2.648055 -0.604037,-1.053452 -0.632471,-1.568087 -0.132287,-2.394346 0.159127,-0.26286 0.313841,-0.626842 0.343812,-0.808851 0.07872,-0.478082 0.163123,-0.60241 0.229477,-0.338037 0.03133,0.124848 -0.01492,0.50591 -0.110005,0.906286 -0.212376,0.894209 -0.203572,0.974155 0.04963,0.450706 0.114289,-0.236276 0.22357,-0.413818 0.242851,-0.394537 0.01929,0.01929 -0.03916,0.302859 -0.129868,0.630177 -0.216767,0.782243 -0.218051,1.158263 -0.0022,0.605125 0.08541,-0.218726 0.198255,-0.437116 0.250776,-0.485312 0.07209,-0.06615 0.0795,-0.04797 0.03021,0.07414 -0.0359,0.08897 -0.07683,0.43476 -0.09095,0.76841 l -0.02568,0.606641 0.10525,-0.404427 c 0.121061,-0.465184 0.426684,-1.09195 0.532456,-1.09195 0.03955,0 0.0054,0.137492 -0.07572,0.305543 -0.135616,0.280689 -0.36541,1.539378 -0.294063,1.610724 0.01693,0.01693 0.09167,-0.211519 0.166076,-0.507698 0.148845,-0.592552 0.371076,-1.078897 0.567476,-1.241894 0.163695,-0.135854 0.160347,-0.100314 -0.03138,0.333127 -0.154655,0.349624 -0.413957,1.614864 -0.401187,1.957571 0.0035,0.09427 0.07754,-0.0288 0.164508,-0.273471 0.160172,-0.450635 0.362454,-0.787782 0.431326,-0.718906 0.02073,0.02072 -0.01568,0.19266 -0.08094,0.382058 -0.145767,0.423098 -0.459061,2.313351 -0.422709,2.550428 0.03504,0.228496 0.3656,-0.981026 0.560761,-2.051811 0.671353,-3.683489 -0.225913,-6.308746 -2.724407,-7.971189 -1.921451,-1.278486 -4.761112,-1.989777 -6.973849,-1.746834 -4.257602,0.467452 -7.105417,2.413852 -7.940418,5.427055 -0.336095,1.212842 -0.306023,2.914624 0.08494,4.806459 0.197013,0.95333 0.462135,1.803946 0.469597,1.506642 0.0082,-0.325264 -0.306584,-2.147193 -0.435659,-2.521832 -0.06505,-0.188805 -0.101303,-0.360243 -0.08057,-0.380976 0.06888,-0.06887 0.271154,0.268271 0.431327,0.718906 0.08697,0.244677 0.160998,0.36774 0.164511,0.273471 0.01278,-0.342707 -0.246533,-1.607947 -0.401189,-1.957571 -0.196927,-0.445188 -0.19741,-0.479091 -0.0043,-0.304359 0.194938,0.176414 0.465027,0.799524 0.581044,1.340493 0.04912,0.22906 0.104381,0.40141 0.122791,0.382997 0.0734,-0.07339 -0.153013,-1.326969 -0.291398,-1.61339 -0.08119,-0.168051 -0.118115,-0.305543 -0.08207,-0.305543 0.117306,0 0.411835,0.580729 0.529459,1.043969 l 0.114869,0.452408 -0.0258,-0.606641 c -0.01418,-0.33365 -0.05519,-0.679437 -0.09109,-0.76841 -0.05479,-0.135792 -0.04713,-0.144975 0.04773,-0.05719 0.06215,0.05752 0.173887,0.275911 0.24829,0.485312 0.200749,0.564982 0.188515,0.119901 -0.01709,-0.622073 -0.09071,-0.327319 -0.149146,-0.610901 -0.129865,-0.630178 0.01928,-0.01929 0.128559,0.158262 0.242849,0.394537 0.253196,0.523449 0.262001,0.443503 0.04963,-0.450705 -0.0919,-0.386974 -0.141001,-0.782806 -0.111611,-0.899892 0.06812,-0.271419 0.09204,-0.23865 0.239799,0.328664 0.06787,0.260574 0.237926,0.657365 0.3779,0.88176 0.191823,0.307511 0.262735,0.527552 0.287931,0.893438 0.03073,0.446199 0.0058,0.537738 -0.308452,1.132392 -0.579331,1.096269 -0.637641,1.224642 -0.72153,1.588471 -0.04473,0.193954 -0.0822,0.833694 -0.08329,1.421644 l -0.0018,1.068999 -0.323543,0.500583 c -0.283996,0.4394 -0.32354,0.55869 -0.32354,0.97604 0,1.159792 1.046384,2.140848 2.439945,2.287616 l 0.431482,0.04545 -0.32354,-0.109583 c -0.423253,-0.143355 -1.308703,-0.594529 -1.373931,-0.700071 -0.06734,-0.108956 -0.03354,-0.104888 0.305699,0.03686 0.157372,0.06575 0.675957,0.211663 1.152416,0.324242 1.000738,0.23646 1.463785,0.426054 1.704306,0.697832 0.207359,0.234301 0.354968,0.651717 0.354968,1.003789 0,0.521324 0.08884,0.766453 0.27775,0.766453 0.09715,0 0.244246,0.04943 0.326873,0.109849 0.127663,0.09335 0.183144,0.09096 0.369356,-0.0159 0.200444,-0.115038 0.237404,-0.113782 0.433436,0.01468 0.194449,0.127407 0.230776,0.128883 0.392068,0.01589 0.239161,-0.167516 0.439275,-0.156755 0.601168,0.03232 0.132873,0.15518 0.136377,0.15518 0.33366,0 0.109655,-0.08626 0.255819,-0.156828 0.324802,-0.156828 z m -2.276006,-0.214478 c -0.08722,-0.08722 -0.05271,-0.60445 0.06393,-0.958359 l 0.106626,-0.323544 0.0072,0.5662 c 0.007,0.546945 -0.06336,0.830141 -0.177797,0.715703 z m 0.805438,-0.0034 c -0.07594,-0.07594 -0.06069,-0.855995 0.01917,-0.982002 0.08943,-0.141075 0.169133,0.143243 0.17065,0.608701 9.17e-4,0.324556 -0.07972,0.483408 -0.189827,0.373301 z m 0.970623,0 c -0.079,-0.079 -0.0616,-0.914501 0.01904,-0.914501 0.07598,0 0.171881,0.386576 0.171881,0.692863 0,0.194388 -0.100978,0.311599 -0.190932,0.221638 z m 0.873906,-0.0479 c -0.02479,-0.0646 -0.03391,-0.313327 -0.02026,-0.552702 0.01834,-0.321914 0.0564,-0.435227 0.146144,-0.435227 0.158967,0 0.178236,1.019059 0.02026,1.071718 -0.05559,0.01853 -0.121351,-0.01917 -0.146144,-0.08379 z m 0.965567,-0.01318 c -0.06666,-0.173699 0.04158,-0.853427 0.135891,-0.853427 0.10251,0 0.09737,0.866943 -0.0056,0.930534 -0.0448,0.0277 -0.103464,-0.007 -0.130364,-0.07711 z m 0.991512,0.06108 c -0.06592,-0.06592 -0.06524,-0.653564 9.17e-4,-0.901117 0.07954,-0.297062 0.187207,-0.04199 0.188647,0.446933 0.0012,0.395228 -0.07244,0.571445 -0.189692,0.454184 z m 0.808852,0 c -0.02843,-0.02846 -0.04791,-0.327746 -0.04324,-0.665104 l 0.0084,-0.613382 0.106626,0.323543 c 0.176513,0.535573 0.129774,1.156586 -0.07187,0.954943 z m -3.873554,-1.810717 c -0.221666,-0.12911 -0.40281,-0.553715 -0.408869,-0.958405 -0.0059,-0.399285 0.565013,-2.049426 0.847933,-2.450489 0.226826,-0.32154 0.714517,-0.449461 1.144599,-0.300219 0.408908,0.141888 0.591612,0.443371 1.039823,1.715828 0.328049,0.931316 0.343243,1.203014 0.09474,1.694045 -0.234451,0.463274 -0.723373,0.517488 -1.115835,0.123726 -0.144104,-0.144582 -0.28606,-0.317474 -0.31545,-0.384205 -0.0475,-0.107845 -0.05938,-0.107845 -0.106892,0 -0.02941,0.06673 -0.171346,0.239623 -0.315454,0.384205 -0.272623,0.273526 -0.586822,0.337306 -0.864606,0.175514 z M 28.50306,26.517043 C 28.335392,26.178139 28.210101,25.889 28.22464,25.874461 c 0.01455,-0.01456 0.189239,0.01147 0.388225,0.05775 0.200707,0.04669 0.739927,0.06536 1.211084,0.04193 l 0.849297,-0.04226 -0.600365,0.193324 c -0.330201,0.106325 -0.761318,0.21746 -0.958037,0.24696 l -0.357672,0.05363 0.05303,0.353656 c 0.02916,0.194509 0.04059,0.353652 0.02537,0.353652 -0.01522,0 -0.164843,-0.277244 -0.332515,-0.6161 z m -6.486226,0.221672 0.05297,-0.313546 -0.349182,-0.05337 c -0.192052,-0.02935 -0.64037,-0.141886 -0.996266,-0.250064 l -0.647083,-0.196686 0.889739,0.04551 c 0.507612,0.02595 1.045118,0.0094 1.251529,-0.03849 0.198982,-0.0462 0.374211,-0.07157 0.389396,-0.05638 0.0382,0.0382 -0.539948,1.176578 -0.597544,1.176578 -0.02559,0 -0.02271,-0.141093 0.0064,-0.313543 z m 4.790287,-1.971465 c -0.6784,-1.221983 -0.784778,-1.49229 -0.784778,-1.994152 0,-0.412006 -0.02367,-0.489681 -0.162658,-0.533794 -0.22132,-0.07024 -0.40354,-0.449648 -0.40354,-0.840224 0,-0.422675 0.103187,-0.473233 0.266574,-0.13061 0.162943,0.341696 0.479457,0.559552 0.723834,0.498218 0.100508,-0.02522 0.382857,-0.224123 0.627451,-0.441995 0.571555,-0.509108 0.975804,-0.711276 1.660769,-0.830557 0.692226,-0.120554 2.047721,-0.05261 2.562902,0.128449 0.792142,0.278396 1.087686,0.965383 1.014823,2.358929 -0.04991,0.954742 -0.259127,1.411354 -0.817674,1.784638 -0.568626,0.38002 -0.918653,0.448562 -2.0753,0.406399 -1.105941,-0.04032 -1.548121,-0.171514 -1.9534,-0.579588 -0.286601,-0.288574 -0.62452,-1.016712 -0.782482,-1.686072 -0.101267,-0.429108 -0.160646,-0.545977 -0.277409,-0.545977 -0.127012,0 -0.141007,0.044 -0.09648,0.303321 0.133952,0.779968 0.312314,1.352636 0.717976,2.305228 0.194608,0.456988 0.0943,0.365056 -0.220617,-0.202213 z m -6.902558,0.33656 c -0.139479,-0.04043 -0.430667,-0.191836 -0.647083,-0.336469 -0.581078,-0.388338 -0.77513,-0.831627 -0.821616,-1.876888 -0.06128,-1.377903 0.264132,-2.065266 1.093224,-2.309197 0.493741,-0.145263 1.874905,-0.193654 2.486661,-0.08712 0.684963,0.119286 1.089216,0.32145 1.660768,0.830557 0.244594,0.217872 0.526946,0.416769 0.627451,0.441996 0.244376,0.06133 0.560892,-0.156523 0.723834,-0.498218 0.163386,-0.342623 0.266574,-0.292065 0.266574,0.13061 0,0.390576 -0.18222,0.769981 -0.403541,0.840224 -0.138975,0.04411 -0.162658,0.121787 -0.162658,0.533505 0,0.392325 -0.05444,0.590491 -0.292965,1.06628 -0.604817,1.206465 -0.982427,1.717416 -0.555057,0.751054 0.206179,-0.466211 0.466483,-1.358627 0.561757,-1.925909 0.04315,-0.256902 0.02871,-0.303234 -0.09428,-0.302748 -0.112419,3.05e-4 -0.175343,0.125561 -0.278599,0.553946 -0.424916,1.762857 -1.116718,2.284489 -3.009439,2.26917 -0.495791,-0.004 -1.015559,-0.04037 -1.155038,-0.08079 z m 5.34525,-1.956058 c -0.02455,-0.06399 -0.03367,-0.349106 -0.02026,-0.633586 0.01862,-0.395002 0.05305,-0.517237 0.145713,-0.517237 0.09693,0 0.121329,0.120578 0.121329,0.5999 0,0.407888 -0.03236,0.610683 -0.101063,0.633587 -0.05559,0.01852 -0.121159,-0.01868 -0.145712,-0.08267 z M 24.364195,20.13557 C 24.017886,19.837979 23.29696,19.45586 22.605878,19.203592 l -0.425584,-0.155352 0.404427,0.0441 c 0.961394,0.10484 2.00892,0.560822 2.227765,0.969737 0.09112,0.170264 0.05403,0.36123 -0.06885,0.354554 -0.03074,-0.0018 -0.201487,-0.128149 -0.379434,-0.281062 z m 1.532053,0.195501 c -0.08985,-0.145386 0.116197,-0.434989 0.475976,-0.669 0.38002,-0.247173 1.187351,-0.50362 1.793579,-0.56973 l 0.404425,-0.0441 -0.404425,0.150032 c -0.7979,0.295999 -1.30101,0.555639 -1.716434,0.885795 -0.465376,0.369861 -0.474633,0.373995 -0.553121,0.247003 z m -6.830037,-0.466535 c 0,-0.0493 0.127393,-0.329761 0.283098,-0.62326 0.155703,-0.293497 0.283656,-0.630706 0.284338,-0.749351 9.17e-4,-0.168987 0.01822,-0.189436 0.07965,-0.09439 0.13662,0.211405 0.08659,0.513161 -0.154887,0.934151 -0.243959,0.425319 -0.492196,0.694059 -0.492196,0.532847 z m 12.270193,-0.296033 c -0.329741,-0.449611 -0.442801,-0.85047 -0.314644,-1.115602 0.08302,-0.171759 0.08555,-0.17067 0.09088,0.03903 0.003,0.118647 0.134625,0.459161 0.292474,0.756704 0.359375,0.677415 0.321798,0.852348 -0.06871,0.319874 z m -11.137799,0.105806 c 0,-0.06025 0.0728,-0.316655 0.161768,-0.569804 0.216038,-0.614662 0.207998,-0.728154 -0.121326,-1.712466 -0.451152,-1.348445 -0.364193,-1.385365 0.203604,-0.08645 0.422336,0.966154 0.509625,1.670117 0.265777,2.14346 -0.147994,0.287281 -0.509823,0.447147 -0.509823,0.225257 z m 9.890087,-0.12059 c -0.105275,-0.160674 -0.143414,-0.381132 -0.143414,-0.829071 0,-0.545979 0.03769,-0.695324 0.358085,-1.419051 0.573777,-1.296071 0.658844,-1.260737 0.208111,0.08645 -0.329324,0.984312 -0.337364,1.097804 -0.121326,1.712466 0.08897,0.253149 0.161769,0.507026 0.161769,0.564176 0,0.187344 -0.316634,0.108762 -0.463225,-0.114966 z m -10.375398,0.03899 c 0,-0.06534 0.05835,-0.235777 0.129674,-0.378748 0.178372,-0.357556 0.22229,-0.789188 0.123996,-1.218653 -0.104816,-0.457966 -0.05754,-0.51277 0.105576,-0.122384 0.234881,0.56215 0.120227,1.440952 -0.225387,1.727581 -0.114181,0.09469 -0.133857,0.09354 -0.133857,-0.0078 z m 11.145504,-0.0365 c -0.322628,-0.356505 -0.407001,-1.141951 -0.180814,-1.683293 0.163113,-0.390386 0.210392,-0.335581 0.105576,0.122384 -0.09938,0.434253 -0.05616,0.842862 0.130871,1.237001 0.166565,0.351012 0.135037,0.53459 -0.05562,0.323908 z m -9.621896,-0.648871 c -0.01541,-0.03571 -0.0093,-0.319723 0.01366,-0.631131 l 0.04171,-0.566197 0.106928,0.323541 c 0.121445,0.367479 0.09934,0.862124 -0.04059,0.907999 -0.05153,0.01691 -0.106312,0.0016 -0.12173,-0.03421 z m 8.07646,0.0041 c -0.09427,-0.09427 -0.05441,-0.702865 0.0628,-0.95883 0.107627,-0.235055 0.11132,-0.225559 0.11768,0.303322 0.0036,0.300287 0.0093,0.572364 0.01262,0.604617 0.0084,0.0823 -0.126208,0.117802 -0.193115,0.05089 z M 18.556106,13.935026 c 0.295268,-0.518163 0.973014,-1.103151 1.667554,-1.439329 0.956638,-0.46304 1.265003,-0.430028 0.386865,0.04141 -0.83838,0.4501 -1.337375,0.811976 -1.776415,1.288279 -0.397065,0.430763 -0.479528,0.463284 -0.278004,0.109631 z m 13.289976,-0.165984 c -0.424784,-0.473765 -0.807237,-0.749273 -1.721811,-1.240331 -0.866322,-0.46515 -0.544693,-0.491527 0.402589,-0.03302 0.694544,0.336178 1.37229,0.921166 1.667559,1.439329 0.20988,0.368323 0.07169,0.30247 -0.348337,-0.165984 z m -12.387945,0.0099 c 0.148828,-0.135325 0.289523,-0.22712 0.312654,-0.203991 0.05224,0.05225 -0.391496,0.449596 -0.502367,0.44985 -0.04448,1.01e-4 0.04089,-0.110536 0.189713,-0.245859 z m 11.761342,0.06879 c -0.27474,-0.192059 -0.363117,-0.362518 -0.120686,-0.232773 0.140889,0.0754 0.480379,0.414766 0.41492,0.414766 -0.01865,0 -0.151051,-0.0819 -0.294237,-0.181993 z"
       id="path1"
       inkscape:label="skull" />
  </g>
</svg>
