<?xml version="1.0" encoding="UTF-8" standalone="no"?>
<!-- Created with Inkscape (http://www.inkscape.org/) -->

<svg
   width="54mm"
   height="40mm"
   viewBox="0 0 54 40"
   version="1.1"
   id="svg1"
   inkscape:version="1.3 (0e150ed6c4, 2023-07-21)"
   sodipodi:docname="coding screen.svg"
   xmlns:inkscape="http://www.inkscape.org/namespaces/inkscape"
   xmlns:sodipodi="http://sodipodi.sourceforge.net/DTD/sodipodi-0.dtd"
   xmlns="http://www.w3.org/2000/svg"
   xmlns:svg="http://www.w3.org/2000/svg">
  <sodipodi:namedview
     id="namedview1"
     pagecolor="#ffffff"
     bordercolor="#000000"
     borderopacity="0.25"
     inkscape:showpageshadow="2"
     inkscape:pageopacity="0.0"
     inkscape:pagecheckerboard="0"
     inkscape:deskcolor="#d1d1d1"
     inkscape:document-units="mm"
     inkscape:zoom="1.9780299"
     inkscape:cx="85.438545"
     inkscape:cy="35.641523"
     inkscape:window-width="1920"
     inkscape:window-height="1009"
     inkscape:window-x="-8"
     inkscape:window-y="-8"
     inkscape:window-maximized="1"
     inkscape:current-layer="layer1" />
  <defs
     id="defs1" />
  <g
     inkscape:label="Camada 1"
     inkscape:groupmode="layer"
     id="layer1">
    <path
       d="m 1.8330768,37.984332 c -0.36277,-0.51792 -0.41188,-2.68777 -0.41188,-18.19738 0,-15.5096106 0.0491,-17.6794506 0.41188,-18.1973806 l 0.41188,-0.58803 h 24.8408202 24.84083 l 0.41188,0.58803 c 0.62463,0.89179 0.62463,35.5029806 0,36.3947606 l -0.41188,0.58804 H 27.085777 2.2449568 Z m 48.7477002,-1.05238 c 0.23974,-0.23973 0.3175,-4.1233 0.3175,-15.8561 0,-13.7732206 -0.0472,-15.5858406 -0.41577,-15.9543706 -0.37167,-0.37167 -2.88178,-0.41578 -23.66131,-0.41578 -20.7795302,0 -23.2896402,0.0441 -23.6613102,0.41578 -0.36842,0.36841 -0.41577,2.16349 -0.41577,15.7601006 0,10.07126 0.0941,15.5202 0.27389,15.8561 0.26763,0.50007 0.81076,0.51177 23.7595802,0.51177 17.91387,0 23.56102,-0.0753 23.80319,-0.3175 z m -27.46712,-8.99149 c -0.005,-1.00399 6.40762,-14.4707 6.98172,-14.66062 0.60379,-0.19974 1.0136,0.34372 0.835,1.1073 -0.0712,0.30432 -1.53946,3.57854 -3.26283,7.27604 -2.87034,6.15833 -3.19288,6.72976 -3.84196,6.80645 -0.58779,0.0695 -0.70913,-0.0207 -0.71193,-0.52917 z m -7.76634,-3.73728 c -3.86311,-2.16283 -4.53655,-2.69986 -4.26525,-3.4013 0.0752,-0.19441 2.01015,-1.40475 4.2999,-2.68964 4.23582,-2.37693 4.95694,-2.57221 4.95694,-1.34235 0,0.3599 -0.87553,0.98813 -3.17147,2.27567 -1.7443,0.97819 -3.20865,1.8901 -3.25411,2.02646 -0.0455,0.13636 1.41147,1.10256 3.23761,2.1471 2.3367,1.33658 3.32026,2.04166 3.32026,2.38019 0,0.42268 -0.48124,0.80223 -1.01717,0.80223 -0.0991,0 -1.9471,-0.98926 -4.10671,-2.19836 z m 18.44873,1.80148 c -0.28249,-0.73614 0.0919,-1.05294 3.42498,-2.898 1.82782,-1.01182 3.2675,-1.92999 3.19927,-2.04038 -0.0682,-0.11039 -1.56361,-1.00895 -3.32308,-1.99679 -1.75947,-0.98784 -3.25983,-1.95414 -3.33413,-2.14732 -0.0743,-0.19319 0.0462,-0.53259 0.26789,-0.75423 0.36092,-0.36091 0.81711,-0.17815 4.37041,1.75092 4.30141,2.33522 5.01778,2.8917 4.62532,3.59298 -0.30524,0.54543 -7.94801,4.8897 -8.60234,4.8897 -0.26181,0 -0.54456,-0.1786 -0.62832,-0.39688 z M 44.802607,3.4019514 c 0.53716,-1.00369 -0.55712,-2.15261 -1.54611,-1.62332 -0.66538,0.3561 -0.88359,1.00009 -0.55004,1.62332 0.36802,0.68766 1.72813,0.68766 2.09615,0 z m 2.91042,0 c 0.53715,-1.00369 -0.55713,-2.15261 -1.54612,-1.62332 -0.66537,0.3561 -0.88358,1.00009 -0.55003,1.62332 0.36802,0.68766 1.72812,0.68766 2.09615,0 z m 2.91041,0 c 0.33355,-0.62323 0.11534,-1.26722 -0.55003,-1.62332 -0.989,-0.52929 -2.08328,0.61963 -1.54612,1.62332 0.36803,0.68766 1.72813,0.68766 2.09615,0 z"
       style="fill:#000000"
       id="path1" />
  </g>
</svg>
