<?xml version="1.0" encoding="UTF-8" standalone="no"?>
<!-- Created with Inkscape (http://www.inkscape.org/) -->

<svg
   width="130mm"
   height="80mm"
   viewBox="0 0 130 80"
   version="1.1"
   id="svg1"
   inkscape:version="1.3 (0e150ed6c4, 2023-07-21)"
   sodipodi:docname="name.svg"
   xmlns:inkscape="http://www.inkscape.org/namespaces/inkscape"
   xmlns:sodipodi="http://sodipodi.sourceforge.net/DTD/sodipodi-0.dtd"
   xmlns="http://www.w3.org/2000/svg"
   xmlns:svg="http://www.w3.org/2000/svg">
  <sodipodi:namedview
     id="namedview1"
     pagecolor="#ffffff"
     bordercolor="#000000"
     borderopacity="0.25"
     inkscape:showpageshadow="2"
     inkscape:pageopacity="0.0"
     inkscape:pagecheckerboard="0"
     inkscape:deskcolor="#d1d1d1"
     inkscape:document-units="mm"
     inkscape:zoom="0.85839035"
     inkscape:cx="245.80891"
     inkscape:cy="213.77221"
     inkscape:window-width="1600"
     inkscape:window-height="829"
     inkscape:window-x="1912"
     inkscape:window-y="-8"
     inkscape:window-maximized="1"
     inkscape:current-layer="layer1" />
  <defs
     id="defs1" />
  <g
     inkscape:label="Camada 1"
     inkscape:groupmode="layer"
     id="layer1">
    <path
       d="m 5.6597396,60.304142 v -14.94954 l 59.2005224,0.0667 59.200548,0.0667 0.0683,14.88281 0.0684,14.882826 H 64.928612 5.6597396 Z m 16.5889324,4.28114 c 1.30755,-0.68535 2.25674,-2.11486 2.40098,-3.61591 0.16966,-1.76572 -0.055,-2.48206 -1.1633,-3.70878 -1.1748,-1.30037 -2.14717,-1.58271 -5.45734,-1.5846 l -2.57968,-10e-4 v 4.79579 4.795796 l 2.97656,-0.11864 c 2.08143,-0.083 3.23104,-0.252016 3.82278,-0.562176 z m -4.41809,-4.14827 v -2.11666 h 1.70058 c 1.52204,0 1.75817,0.0732 2.24896,0.69714 0.74223,0.94359 0.70233,2.08337 -0.10106,2.88676 -0.54629,0.54628 -0.90347,0.64943 -2.24896,0.64943 h -1.59952 z m 12.7,0 v -4.7625 h -1.19063 -1.19062 v 4.7625 4.762496 h 1.19062 1.19063 z m 23.07286,4.48733 c 1.70916,-0.47469 2.00964,-1.14973 2.00964,-4.51481 0,-2.84312 -0.023,-2.9596 -0.74496,-3.76827 l -0.74496,-0.83446 -4.38796,-0.0839 -4.38796,-0.084 v 4.78031 4.780306 l 3.63802,-10e-4 c 2.00092,-8.2e-4 4.07909,-0.12398 4.61818,-0.273696 z m -5.87495,-4.48733 v -2.11666 h 2.77813 c 2.29305,0 2.77812,0.0693 2.77812,0.39687 0,0.32165 -0.42627,0.39688 -2.24896,0.39688 h -2.24895 v 1.32291 1.32292 h 2.24895 c 1.82269,0 2.24896,0.0752 2.24896,0.39687 0,0.32758 -0.48507,0.39688 -2.77812,0.39688 h -2.77813 z m 19.57917,3.43959 v -1.32292 h -2.91042 -2.91041 v -3.43958 -3.43959 h -1.19063 -1.19062 v 4.7625 4.762496 h 4.10104 4.10104 z m 7.40063,-1.52136 c 0.65844,-1.49159 1.26761,-2.71198 1.35372,-2.71198 0.18065,0 0.77065,1.2249 0.77065,1.59995 0,0.13868 -0.2252,0.25214 -0.50044,0.25214 -0.3373,0 -0.63918,0.34675 -0.92604,1.06368 -0.23408,0.58503 -0.4256,1.12081 -0.4256,1.19063 0,0.0698 0.69526,0.12694 1.54503,0.12694 1.39127,0 1.57502,0.0658 1.84641,0.66145 0.2685,0.589306 0.46074,0.661456 1.76226,0.661456 0.80348,0 1.46088,-0.0607 1.46088,-0.13486 0,-0.556806 -3.82241,-8.562756 -4.26222,-8.927116 -0.8119,-0.67261 -1.99742,-0.58779 -2.72271,0.19482 -0.46905,0.50612 -2.76142,5.33869 -4.05606,8.55064 -0.10687,0.265156 0.21904,0.326356 1.40896,0.264586 l 1.54799,-0.0804 z m 17.44542,2.49861 c 1.264452,-0.25289 1.99713,-1.53649 1.99713,-2.84161 0,-0.82906 -0.1793,-1.2273 -0.85855,-1.90688 -0.82979,-0.8302 -0.94259,-0.86204 -3.36742,-0.95066 -1.90661,-0.0697 -2.50888,-0.17893 -2.50888,-0.45511 0,-0.28531 0.72513,-0.37935 3.37344,-0.43748 l 3.37344,-0.074 0.0814,-1.27655 0.0814,-1.27654 -3.84742,0.0859 -3.84743,0.0859 -0.85822,0.85897 c -0.678863,0.679457 -0.85822,1.07798 -0.85822,1.90689 0,2.16152 1.49548,3.14648 4.81662,3.17233 1.52206,0.0119 1.91823,0.0969 1.91823,0.41181 0,0.33243 -0.55857,0.39688 -3.43959,0.39688 h -3.43958 v 1.14653 c 0,0.63059 0.0794,1.2259 0.17639,1.322906 0.30289,0.3029 6.221836,0.0278 7.20716,-0.169266 z m 7.697711,-4.41684 v -4.7625 h -1.19064 -1.190617 v 4.7625 4.762496 h 1.190617 1.19064 z m 11.867297,4.1212 c 1.07543,-0.55613 2.09144,-1.84185 2.42016,-3.06263 0.56415,-2.09512 -0.72335,-4.57563 -2.83571,-5.46329 -0.99532,-0.41825 -3.5237,-0.46988 -4.81898,-0.0984 -1.83671,0.52676 -3.19317,2.38902 -3.19317,4.38386 0,2.20886 1.43713,4.10918 3.50934,4.640436 1.19193,0.30557 3.99475,0.0776 4.91836,-0.399976 z m -4.87116,-2.20702 c -0.64568,0 -1.17529,-1.50402 -1.17529,-2.06966 0,-0.3118 0.24677,-0.88062 0.54837,-1.26404 0.50237,-0.63865 0.70938,-0.69714 2.46742,-0.69714 1.66387,0 1.99555,0.0814 2.49434,0.61236 0.78883,0.83967 0.75636,2.14103 -0.0741,2.97154 -0.55317,0.55316 -0.89634,0.64883 -2.31511,0.64538 -0.91612,-0.002 -1.75813,-0.19844 -1.94559,-0.19844 z M 14.655579,27.394662 c 0,-4.20434 0.0961,-6.64515 0.26167,-6.64515 0.14391,0 1.63219,0.68222 3.30729,1.51603 l 3.04562,1.51603 v 2.18814 2.18814 h 3.70417 c 2.03729,0 3.70417,-0.0638 3.70417,-0.1417 0,-0.0779 -0.56555,-0.38995 -1.25677,-0.69338 -0.69123,-0.30343 -1.099,-0.60975 -0.90617,-0.68073 0.19284,-0.071 2.63091,0.99351 5.41795,2.36551 l 5.06734,2.49455 -1.4492,0.6765 c -3.04906,1.42333 -4.27769,1.58817 -12.89242,1.72971 l -8.00365,0.13149 z m 46.0375,0.63089 c 0,-3.27421 0.0583,-5.95312 0.1296,-5.95312 0.0713,0 1.61909,0.74193 3.43958,1.64874 l 3.30999,1.64875 v 1.39396 1.39397 h 2.11666 c 1.16417,0 2.11667,-0.0936 2.11667,-0.20808 0,-0.11444 -0.74414,-0.59243 -1.65365,-1.06219 -0.9095,-0.46976 -1.35599,-0.7759 -0.99218,-0.68031 0.3638,0.0956 4.09159,1.88326 8.28398,3.97261 l 7.62253,3.7988 h -12.18659 -12.18659 z m 43.792161,1.97109 c -0.93559,-2.41982 -1.75104,-4.13014 -2.07856,-4.35954 -1.41178,-0.98884 0.16523,-0.35231 5.33609,2.15384 6.29513,3.05105 5.84532,2.57457 4.77977,5.06326 l -0.48146,1.12448 h -3.00812 -3.00812 z m -24.080701,0.64747 -4.7625,-2.46219 4.52976,-0.012 4.52976,-0.012 3.40774,1.72719 c 3.61779,1.83367 3.62335,1.87877 0.10045,0.81505 -1.23693,-0.37348 -2.33826,-0.68155 -2.4474,-0.68461 -0.10914,-0.003 -0.19844,0.70883 -0.19844,1.58195 0,0.87313 -0.0893,1.56981 -0.19843,1.54818 -0.10915,-0.0216 -2.34157,-1.1473 -4.96094,-2.5015 z m -46.29253,-1.35705 -3.4218,-1.71496 0.85861,-0.36102 c 0.47224,-0.19856 1.36864,-0.77895 1.992,-1.28975 l 1.13339,-0.92872 5.79954,2.88937 c 3.18975,1.58915 5.70647,2.89664 5.59272,2.90553 -0.11375,0.009 -1.40915,-0.34102 -2.87868,-0.77758 -1.46952,-0.43656 -2.85247,-0.79375 -3.07322,-0.79375 -0.22075,0 -0.89173,0.40182 -1.49106,0.89292 l -1.0897,0.89293 z m 71.782151,-3.32833 c -5.80292,-2.87263 -7.556771,-3.85278 -7.470111,-4.17472 0.0856,-0.31798 -0.85077,-0.87957 -3.835,-2.30007 -2.17154,-1.03366 -4.02216,-1.99896 -4.11249,-2.14513 -0.18487,-0.29912 1.42699,0.43931 11.623821,5.32514 9.32285,4.46705 8.78145,4.23743 8.95076,3.79621 0.097,-0.25285 -1.39976,-1.11803 -5.01255,-2.89737 -4.70406,-2.3168 -5.18438,-2.61699 -5.53675,-3.46033 -0.21221,-0.5079 -0.38584,-0.97879 -0.38584,-1.04644 0,-0.0676 1.90849,0.78491 4.2411,1.89455 3.48223,1.65652 4.27038,2.13423 4.4048,2.66978 0.15321,0.61044 0.18604,0.62171 0.51215,0.17572 0.3265,-0.44651 0.61987,-0.35093 4.65719,1.5173 2.36981,1.09661 4.58561,2.07704 4.924,2.17873 0.33838,0.10169 0.55815,0.24199 0.48836,0.31178 -0.0698,0.0698 -0.98302,-0.12808 -2.02941,-0.43971 -1.04638,-0.31163 -2.04098,-0.51346 -2.2102,-0.44853 -0.16923,0.0649 -0.52708,0.72819 -0.79523,1.47389 -0.26815,0.7457 -0.56488,1.34848 -0.65941,1.33951 -0.0945,-0.009 -3.58436,-1.70561 -7.75519,-3.77031 z m -66.791351,-2.53546 c -3.09645,-1.45308 -3.19356,-1.52392 -2.95331,-2.15427 0.47864,-1.25579 0.0975,-4.74273 -0.71546,-6.54588 -0.85939,-1.90609 -1.8655,-2.88754 -4.18731,-4.084721 -1.60603,-0.8280903 -1.73397,-0.8490603 -5.80938,-0.9517903 l -4.16719,-0.10504 v 2.6735513 c 0,1.47046 -0.0707,2.67356 -0.1572,2.67356 -0.17457,0 -10.480692,-4.782821 -10.690713,-4.9612913 -0.0728,-0.0618 0.849971,-0.027 2.050521,0.0774 l 2.182812,0.18977 V 7.1576907 4.0808147 h 7.3585 c 6.57333,0 7.58262,0.05815 9.45886,0.544956 3.23539,0.83944 5.74013,2.19534 7.76186,4.20175 3.00559,2.9828213 4.23356,6.0239213 4.25094,10.5276013 l 0.009,2.44202 1.08398,0.553 c 0.59618,0.30416 1.02524,0.61174 0.95345,0.68352 -0.0718,0.0718 -1.57807,-0.53184 -3.3473,-1.34137 -1.76924,-0.80954 -3.38892,-1.47189 -3.59929,-1.47189 -0.89899,0 -0.25497,0.61843 1.40343,1.34767 0.98227,0.43193 2.10822,0.93048 2.50212,1.10789 l 0.71618,0.32256 -0.4516,0.96365 -0.45159,0.96365 z m 21.55997,-2.48497 c -4.16983,-2.06903 -6.47001,-3.35033 -6.39423,-3.56184 0.0753,-0.21021 -1.39532,-1.05379 -4.04407,-2.31972 -2.28934,-1.09416 -4.09476,-2.05707 -4.01203,-2.13979 0.0827,-0.0827 1.14229,0.3221 2.35458,0.89961 14.29951,6.812 18.06172,8.51145 18.30466,8.26851 0.34308,-0.34308 0.54674,-0.21446 -3.06976,-1.93871 -2.96822,-1.41518 -3.10885,-1.51884 -3.10885,-2.29162 0,-0.44517 0.0499,-0.80939 0.11084,-0.80939 0.12881,0 7.09286,3.27422 9.81103,4.61275 l 1.85209,0.91204 -2.4474,0.0157 -2.44739,0.0157 v 0.79375 c 0,0.43657 -0.0893,0.78941 -0.19844,0.78411 -0.10914,-0.005 -3.12911,-1.46383 -6.71103,-3.24115 z m 23.23069,-0.0354 c -2.88328,-1.34556 -5.40824,-2.44648 -5.61101,-2.44648 -0.20278,0 -0.42443,0.14526 -0.49256,0.32279 -0.11589,0.302 5.4212,3.0286 6.1504,3.0286 0.16538,0 0.3007,0.1786 0.3007,0.39688 0,0.31273 -0.37065,0.39687 -1.7483,0.39687 -1.66737,0 -2.02556,-0.12965 -7.73906,-2.80137 -3.29492,-1.54076 -6.04038,-2.85045 -6.10101,-2.91042 -0.0606,-0.06 3.42194,-0.10904 7.73906,-0.10904 h 7.84931 v 1.9463 1.9463 l 2.64583,1.22804 c 2.32859,1.08079 3.10428,1.547 2.4474,1.47098 -0.10915,-0.0126 -2.55749,-1.12389 -5.44076,-2.46945 z m -68.38142,-0.7625 c -3.606382,-1.81325 -5.317883,-2.80858 -5.228773,-3.0408 0.0892,-0.2324 -1.2200097,-0.99061 -4.0058597,-2.31998 -2.2760801,-1.08612 -4.0644802,-2.04862 -3.9742102,-2.13888 0.0903,-0.0903 3.4720302,1.41486 7.5150202,3.34473 4.0429917,1.92987 8.2736327,3.93635 9.4014127,4.45883 1.83849,0.85174 2.05052,1.02607 2.05052,1.68591 0,0.40476 -0.0893,0.72915 -0.19843,0.72086 -0.10915,-0.008 -2.611,-1.22809 -5.55968,-2.71067 z m 97.965431,1.22493 c -1.4552,-0.6566 -2.67791,-1.22484 -2.71712,-1.26275 -0.0392,-0.0379 1.13446,-3.33092 2.60815,-7.31779 1.47369,-3.9868713 2.79734,-7.5762713 2.94144,-7.9764613 l 0.26201,-0.727601 h 3.4137 c 3.25415,0 3.4137,0.0251 3.4137,0.537111 0,0.29542 -1.25016,3.69913 -2.77813,7.5638113 -1.52796,3.86468 -2.77812,7.17689 -2.77812,7.36047 0,0.18357 1.19984,0.89814 2.66631,1.58793 1.46648,0.68979 2.60585,1.31463 2.53194,1.38854 -0.0739,0.0739 -2.38766,-0.88921 -5.14166,-2.14028 -2.754,-1.25106 -5.09273,-2.27466 -5.19717,-2.27466 -0.10444,0 -0.15139,0.18412 -0.10434,0.40916 0.0668,0.31956 2.76218,1.76904 4.30501,2.31508 0.26793,0.0948 -0.32529,1.78922 -0.61354,1.75247 -0.0915,-0.0117 -1.35697,-0.55843 -2.81218,-1.21503 z m -95.713051,-2.48378 c -2.95314,-1.497 -3.10885,-1.61668 -3.10885,-2.38958 0,-0.4475 0.10098,-0.77395 0.22441,-0.72545 0.12343,0.0485 1.61097,0.74304 3.30566,1.54341 3.00006,1.41686 3.08129,1.47786 3.08288,2.3151 9e-4,0.47294 -0.0877,0.85372 -0.1968,0.84618 -0.10915,-0.007 -1.59743,-0.72289 -3.3073,-1.58966 z m 82.748441,-3.60491 c -3.201461,-1.52942 -6.713801,-3.19242 -7.805211,-3.695561 -1.53678,-0.70845 -1.7755,-0.88446 -1.05833,-0.78032 1.77962,0.25843 5.29167,0.49088 5.29167,0.35025 0,-0.078 -0.53578,-1.4206503 -1.19063,-2.9836603 -0.65484,-1.56301 -1.19062,-3.12537 -1.19062,-3.4719 v -0.63005 l 3.46542,0.07383 3.465431,0.07382 2.22694,5.9531303 c 1.22481,3.274211 2.40284,6.399611 2.61785,6.945311 0.21502,0.5457 0.3026,0.98177 0.19464,0.96905 -0.10796,-0.0127 -2.81568,-1.27449 -6.01716,-2.8039 z m -33.337501,1.02429 c -0.14552,-0.13375 -3.06255,-1.52826 -6.48229,-3.09892 -3.41974,-1.57066 -6.27724,-2.912541 -6.35,-2.981961 -0.12546,-0.11971 1.90405,0.0395 4.96094,0.38924 l 1.38906,0.15891 V 7.4244807 4.0807597 h 12.17083 12.17084 v 2.910421 2.91041 h -8.72335 -8.72334 l -0.074,3.3212613 c -0.049,2.19627 -0.16368,3.23889 -0.33864,3.07808 z"
       style="fill:#000000"
       id="path1"
       sodipodi:nodetypes="ccccccccccsccccccccccssssccccccccccccscccccccccccssscccsssccccccccccccccccsssssssssssscccsssssccccccsscsscscssccccccccccssssscsssssccssssccccssscscsccsssscccssssccccssssscccsccccsscscccccsccscsscccssssscsssssssssscscsccccscsscccccscscccsssssccccccsssssssscccscccssssssscscccscsccccsssccsssscsssssssssccscsscsccsssssscccsssscssccccccccccccc" />
  </g>
</svg>
